o TutorialScene
v -30.000000 0.000000 0.000000
v 0.000000 0.000000 0.000000
v -30.000000 17.000000 0.000000
v 0.000000 2.000000 0.000000
v -30.000000 2.000000 0.000000
v -30.000000 6.000000 0.000000
v 0.000000 17.000000 0.000000
v 0.000000 6.000000 0.000000
v -2.000000 6.000000 0.000000
v -2.000000 15.000000 0.000000
v -28.000000 15.000000 0.000000
v -28.000000 6.000000 0.000000
vn -0.0000 -0.0000 -1.0000
vt 0.000000 0.000000
s 0
f 2/1/1 1/1/1 5/1/1 4/1/1
f 3/1/1 7/1/1 8/1/1 9/1/1 10/1/1 11/1/1 12/1/1 6/1/1
